<svg xmlns="http://www.w3.org/2000/svg"  viewBox="0 0 48 48" width="48px" height="48px"><path fill="#9C27B0" d="M46,21H2v-7.379C2,8.351,8.931,6,24.474,6C39.764,6,46,8.208,46,13.621V21z"/><path fill="#EF6C00" d="M2 20H46V25H2z"/><path fill="#F3E5F5" d="M42 19.993v-5.353c0-.256-.11-.497-.303-.664C41.465 13.773 39.448 12 33.391 12c-6.059 0-7.855 1.773-8.088 1.977C25.11 14.144 25 14.385 25 14.641v5.353H42zM23 20v-5.353c0-.256-.11-.497-.303-.664-.232-.203-2.287-1.979-8.345-1.979s-7.817 1.776-8.05 1.979C6.11 14.15 6 14.392 6 14.647V20H23z"/><path fill="#FF9800" d="M46,42h-6v-2.237C40,38.52,39.56,38,38.315,38H9.685C8.44,38,8,38.52,8,39.763V42H2V25h44V42z"/></svg>