<svg xmlns="http://www.w3.org/2000/svg"  viewBox="0 0 48 48" width="48px" height="48px"><path fill="#FFA000" d="M41,42H7V3h34V42z"/><path fill="#EF6C00" d="M7,41h34v2v2h-4v-0.4c0-1.2-0.4-1.6-1.6-1.6H12.6c-1.2,0-1.6,0.4-1.6,1.6V45H7v-2V41z M25,29V3h-2v26H7v2h34v-2H25z M7,37h34v-2H7V37z"/><path fill="#5D4037" d="M30,15v4c0,0.6-0.4,1-1,1c-0.6,0-1-0.4-1-1v-4c0-0.6,0.4-1,1-1C29.6,14,30,14.4,30,15z M19,14c-0.6,0-1,0.4-1,1v4c0,0.6,0.4,1,1,1c0.6,0,1-0.4,1-1v-4C20,14.4,19.6,14,19,14z M24,32c-0.6,0-1,0.4-1,1s0.4,1,1,1s1-0.4,1-1S24.6,32,24,32z M24,38c-0.6,0-1,0.4-1,1s0.4,1,1,1s1-0.4,1-1S24.6,38,24,38z"/></svg>