<svg xmlns="http://www.w3.org/2000/svg"  viewBox="0 0 48 48" width="48px" height="48px"><path fill="#f57c00" d="M24,36L24,36c-1.105,0-2-0.895-2-2V9h4v25C26,35.105,25.105,36,24,36z"/><ellipse cx="24" cy="14" fill="#ff9800" rx="22" ry="5"/><polygon fill="#ff9800" points="6,14.439 2,13.939 2,10.939 6,10.439"/><polygon fill="#ff9800" points="46,13.939 42,14.439 42,10.439 46,10.939"/><ellipse cx="24" cy="11.042" fill="#ffc107" rx="22" ry="5.042"/><path fill="#f57c00" d="M14,42h-2v-4h2c0.552,0,1-0.449,1-1c0-4.411,3.589-8,8-8v4c-2.206,0-4,1.794-4,4 C19,39.757,16.757,42,14,42z"/><path fill="#f57c00" d="M36,42h-2c-2.757,0-5-2.243-5-5c0-2.206-1.794-4-4-4v-4c4.411,0,8,3.589,8,8c0,0.551,0.448,1,1,1h2 V42z"/></svg>